{
  "accessors": [
    {
      "bufferView": 2,
      "componentType": 5126,
      "count": 11375,
      "max": [
        1124.58984375,
        782.88262939453125,
        659.7452392578125
      ],
      "min": [
        -1109.2767333984375,
        -75.000038146972656,
        -593.96954345703125
      ],
      "type": "VEC3"
    },
    {
      "bufferView": 2,
      "byteOffset": 136500,
      "componentType": 5126,
      "count": 11375,
      "max": [
        0.99966758489608765,
        0.99998873472213745,
        0.9997369647026062
      ],
      "min": [
        -0.99988877773284912,
        -0.99608981609344482,
        -0.99977260828018188
      ],
      "type": "VEC3"
    },
    {
      "bufferView": 3,
      "componentType": 5126,
      "count": 11375,
      "max": [
        0.99995952844619751,
        0.99999594688415527,
        1,
        1
      ],
      "min": [
        -0.99997872114181519,
        -0.99999755620956421,
        -0.99999094009399414,
        -1
      ],
      "type": "VEC4"
    },
    {
      "bufferView": 1,
      "componentType": 5126,
      "count": 11375,
      "max": [
        0.97312062978744507,
        0.97825747728347778
      ],
      "min": [
        0.029581960290670395,
        0.10142917931079865
      ],
      "type": "VEC2"
    },
    {
      "bufferView": 0,
      "componentType": 5125,
      "count": 15201,
      "max": [
        11374
      ],
      "min": [
        0
      ],
      "type": "SCALAR"
    }
  ],
  "asset": {
    "generator": "Sketchfab (OSG glTF plugin)",
    "version": "2.0"
  },
  "bufferViews": [
    {
      "buffer": 0,
      "byteLength": 60804,
      "byteOffset": 0,
      "name": "floatBufferViews",
      "target": 34963
    },
    {
      "buffer": 0,
      "byteLength": 91000,
      "byteOffset": 60804,
      "byteStride": 8,
      "name": "floatBufferViews",
      "target": 34962
    },
    {
      "buffer": 0,
      "byteLength": 273000,
      "byteOffset": 151804,
      "byteStride": 12,
      "name": "floatBufferViews",
      "target": 34962
    },
    {
      "buffer": 0,
      "byteLength": 182000,
      "byteOffset": 424804,
      "byteStride": 16,
      "name": "floatBufferViews",
      "target": 34962
    }
  ],
  "buffers": [
    {
      "byteLength": 606804,
      "uri": "scene.bin"
    }
  ],
  "images": [
    {
      "uri": "textures/autumn_tree_set_mat_baseColor.png"
    }
  ],
  "materials": [
    {
      "doubleSided": true,
      "emissiveFactor": [
        0,
        0,
        0
      ],
      "name": "autumn_tree_set_mat",
      "pbrMetallicRoughness": {
        "baseColorFactor": [
          1,
          1,
          1,
          1
        ],
        "baseColorTexture": {
          "index": 0,
          "texCoord": 0
        },
        "metallicFactor": 0,
        "roughnessFactor": 0.89000000000000001
      }
    }
  ],
  "meshes": [
    {
      "name": "sample_island_autumn_tree_set_mat_0",
      "primitives": [
        {
          "attributes": {
            "NORMAL": 1,
            "POSITION": 0,
            "TANGENT": 2,
            "TEXCOORD_0": 3
          },
          "indices": 4,
          "material": 0,
          "mode": 4
        }
      ]
    }
  ],
  "nodes": [
    {
      "children": [
        1
      ],
      "name": "RootNode (gltf orientation matrix)",
      "rotation": [
        -0.70710678118654746,
        -0,
        -0,
        0.70710678118654757
      ]
    },
    {
      "children": [
        2
      ],
      "name": "RootNode (model correction matrix)"
    },
    {
      "children": [
        3
      ],
      "matrix": [
        1,
        0,
        0,
        0,
        0,
        0,
        1,
        0,
        0,
        -1,
        0,
        0,
        0,
        0,
        0,
        1
      ],
      "name": "b1924065d1da456b8f2d1f553209d69d.fbx"
    },
    {
      "children": [
        4
      ],
      "name": "RootNode"
    },
    {
      "children": [
        5
      ],
      "name": "sample_island"
    },
    {
      "children": [
        6
      ],
      "name": "Geode"
    },
    {
      "mesh": 0,
      "name": "sample_island_autumn_tree_set_mat_0"
    }
  ],
  "samplers": [
    {
      "magFilter": 9729,
      "minFilter": 9987,
      "wrapS": 10497,
      "wrapT": 10497
    }
  ],
  "scene": 0,
  "scenes": [
    {
      "name": "OSG_Scene",
      "nodes": [
        0
      ]
    }
  ],
  "textures": [
    {
      "sampler": 0,
      "source": 0
    }
  ]
}

